<svg width="260" height="260" viewBox="0 0 260 260" fill="none" xmlns="http://www.w3.org/2000/svg">
<circle cx="130" cy="130" r="130" fill="black"/>
<path fill-rule="evenodd" clip-rule="evenodd" d="M120.207 98.2625C120.207 116.097 105.749 130.555 87.9143 130.555C70.0797 130.555 55.6219 116.097 55.6219 98.2625C55.6219 80.4279 70.0797 65.9702 87.9143 65.9702C105.749 65.9702 120.207 80.4279 120.207 98.2625ZM89.067 98.2625H64.4291V97.2625H88.3825L70.3006 79.1806L71.0077 78.4735L89.3824 96.8482L89.3824 71.8415H90.3824V96.9471L108.856 78.4736L109.563 79.1807L91.4812 97.2625H115.803V98.2625H90.7967L107.335 114.801L106.628 115.508L90.3824 99.2624V123.216H89.3824V99.3614L73.236 115.508L72.5289 114.801L89.067 98.2625Z" fill="#FF3FCB"/>
<path fill-rule="evenodd" clip-rule="evenodd" d="M215.928 99.556C215.928 117.391 201.47 131.848 183.636 131.848C165.801 131.848 151.343 117.391 151.343 99.556C151.343 81.7214 165.801 67.2637 183.636 67.2637C201.47 67.2637 215.928 81.7214 215.928 99.556ZM184.788 99.556H160.15V98.556H184.104L166.022 80.4741L166.729 79.767L185.104 98.1417L185.104 73.135H186.104V98.2407L204.577 79.7671L205.284 80.4743L187.202 98.556H211.525V99.556H186.518L203.056 116.094L202.349 116.801L186.104 100.556V124.509H185.104V100.655L168.957 116.801L168.25 116.094L184.788 99.556Z" fill="#FF3FCB"/>
<circle cx="89.2537" cy="98.3085" r="5.17413" fill="white"/>
<circle cx="184.975" cy="99.602" r="5.17413" fill="white"/>
<path d="M102.189 209.552C102.189 209.552 129.407 227.085 146.169 221.194C160.339 216.214 172.04 192.736 172.04 192.736" stroke="white" stroke-width="3" stroke-linecap="round"/>
<path d="M135.174 132.587C140.866 151.214 136.252 160.614 133.881 162.985C131.509 165.357 128.06 164.925 128.06 164.925" stroke="white" stroke-width="3" stroke-linecap="round"/>
</svg>
