<svg width="287" height="226" viewBox="0 0 287 226" fill="none" xmlns="http://www.w3.org/2000/svg">
<rect x="3.91156" y="85.989" width="217.088" height="145.941" rx="8" transform="rotate(-22.215 3.91156 85.989)" fill="black" stroke="white" stroke-width="6"/>
<rect x="66.9119" y="39.1763" width="217.088" height="145.941" rx="8" fill="black" stroke="white" stroke-width="6"/>
<circle cx="209.823" cy="112.147" r="43.4118" fill="#FFE13F"/>
<path d="M185 102.923C185 115.534 195.235 125.758 207.861 125.758C209.046 125.758 210.247 125.668 211.45 125.494C206.469 124.734 201.515 122.303 197.578 118.875C192.785 114.701 189.437 108.994 189.437 102.923C189.437 96.8409 192.797 91.6326 197.603 87.9633C202.408 84.2951 208.704 82.1253 214.696 82.1253C216.2 82.1253 217.669 82.2777 219.087 82.5681C215.472 80.9809 211.593 80.0882 207.861 80.0882C195.235 80.0882 185 90.3123 185 102.923Z" fill="black" stroke="black"/>
<path d="M235.207 120.165C235.207 107.554 224.972 97.3301 212.346 97.3301C211.16 97.3301 209.96 97.4201 208.757 97.5941C213.737 98.3539 218.692 100.785 222.629 104.213C227.422 108.387 230.77 114.094 230.77 120.165C230.77 126.247 227.41 131.455 222.604 135.125C217.799 138.793 211.503 140.963 205.511 140.963C204.007 140.963 202.538 140.81 201.12 140.52C204.735 142.107 208.614 143 212.346 143C224.972 143 235.207 132.776 235.207 120.165Z" fill="black" stroke="black"/>
<circle cx="96.4707" cy="155.559" r="12.0588" fill="#FFE13F"/>
<path d="M84.4119 34.4999C84.4119 26.7679 90.6799 20.4999 98.4119 20.4999H133.118C140.85 20.4999 147.118 26.7679 147.118 34.4999V36.1764H84.4119V34.4999Z" fill="#FFE13F"/>
</svg>
