<svg width="30" height="30" viewBox="0 0 30 30" fill="none" xmlns="http://www.w3.org/2000/svg">
<path d="M25.3125 5.625H4.6875C4.43886 5.625 4.2004 5.72377 4.02459 5.89959C3.84877 6.0754 3.75 6.31386 3.75 6.5625C3.75 6.81114 3.84877 7.0496 4.02459 7.22541C4.2004 7.40123 4.43886 7.5 4.6875 7.5H5.625V24.375C5.625 24.8723 5.82254 25.3492 6.17417 25.7008C6.52581 26.0525 7.00272 26.25 7.5 26.25H22.5C22.9973 26.25 23.4742 26.0525 23.8258 25.7008C24.1775 25.3492 24.375 24.8723 24.375 24.375V7.5H25.3125C25.5611 7.5 25.7996 7.40123 25.9754 7.22541C26.1512 7.0496 26.25 6.81114 26.25 6.5625C26.25 6.31386 26.1512 6.0754 25.9754 5.89959C25.7996 5.72377 25.5611 5.625 25.3125 5.625ZM22.5 24.375H7.5V7.5H22.5V24.375ZM9.375 2.8125C9.375 2.56386 9.47377 2.3254 9.64959 2.14959C9.8254 1.97377 10.0639 1.875 10.3125 1.875H19.6875C19.9361 1.875 20.1746 1.97377 20.3504 2.14959C20.5262 2.3254 20.625 2.56386 20.625 2.8125C20.625 3.06114 20.5262 3.2996 20.3504 3.47541C20.1746 3.65123 19.9361 3.75 19.6875 3.75H10.3125C10.0639 3.75 9.8254 3.65123 9.64959 3.47541C9.47377 3.2996 9.375 3.06114 9.375 2.8125Z" fill="white"/>
</svg>
