<svg width="189" height="375" viewBox="0 0 189 375" fill="none" xmlns="http://www.w3.org/2000/svg">
<path fill-rule="evenodd" clip-rule="evenodd" d="M97.0172 209.684H90.6952V357.574L28.9999 374.918H160.244L97.0172 357.144V209.684Z" fill="#EEF3CB"/>
<mask id="mask0_304_255" style="mask-type:alpha" maskUnits="userSpaceOnUse" x="-1" y="111" width="189" height="112">
<mask id="path-2-inside-1_304_255" fill="white">
<path d="M187.956 111.195C187.956 140.686 178.054 168.969 160.43 189.822C142.806 210.675 118.902 222.39 93.9777 222.39C69.0533 222.39 45.1496 210.675 27.5254 189.822C9.90109 168.969 -0.000118307 140.686 -0.00012207 111.195L93.9777 111.195H187.956Z"/>
</mask>
<path d="M187.956 111.195C187.956 140.686 178.054 168.969 160.43 189.822C142.806 210.675 118.902 222.39 93.9777 222.39C69.0533 222.39 45.1496 210.675 27.5254 189.822C9.90109 168.969 -0.000118307 140.686 -0.00012207 111.195L93.9777 111.195H187.956Z" fill="#FF3FCB" stroke="#FF3FCB" stroke-width="14" mask="url(#path-2-inside-1_304_255)"/>
</mask>
<g mask="url(#mask0_304_255)">
<rect x="-4" y="176" width="205" height="46" fill="#FF3FCB"/>
</g>
<mask id="path-4-inside-2_304_255" fill="white">
<path d="M188.956 113.517C188.956 143.008 179.055 171.291 161.43 192.144C143.806 212.997 119.902 224.712 94.9779 224.712C70.0534 224.712 46.1498 212.997 28.5255 192.144C10.9012 171.291 1.00002 143.008 1.00002 113.517L94.9779 113.517H188.956Z"/>
</mask>
<path d="M188.956 113.517C188.956 143.008 179.055 171.291 161.43 192.144C143.806 212.997 119.902 224.712 94.9779 224.712C70.0534 224.712 46.1498 212.997 28.5255 192.144C10.9012 171.291 1.00002 143.008 1.00002 113.517L94.9779 113.517H188.956Z" stroke="#EEF3CB" stroke-width="10" mask="url(#path-4-inside-2_304_255)"/>
<path fill-rule="evenodd" clip-rule="evenodd" d="M88.9562 120.826C88.9562 138.258 74.824 152.391 57.3911 152.391C39.9582 152.391 25.826 138.258 25.826 120.826C25.826 103.393 39.9582 89.2604 57.3911 89.2604C74.824 89.2604 88.9562 103.393 88.9562 120.826ZM58.4861 120.826H34.4349V119.826H57.8259L40.1738 102.173L40.8809 101.466L58.826 119.411L58.826 94.9995H59.826V119.486L77.8452 101.466L78.5523 102.173L60.9003 119.826H84.652V120.826H60.2401L76.3898 136.975L75.6827 137.682L59.826 121.826V145.217H58.826V121.9L43.0434 137.682L42.3363 136.975L58.4861 120.826Z" fill="#FF3FCB"/>
<path d="M149.984 150.018C150.259 149.991 150.459 149.746 150.432 149.471C150.404 149.196 150.159 148.996 149.885 149.023L149.984 150.018ZM139.635 159.039C142.428 152.337 147.759 150.241 149.984 150.018L149.885 149.023C147.327 149.279 141.658 151.583 138.712 158.655L139.635 159.039Z" fill="black"/>
<circle cx="137.739" cy="168.89" r="11.4782" fill="#EEF3CB"/>
</svg>
