<svg width="458" height="346" viewBox="0 0 458 346" fill="none" xmlns="http://www.w3.org/2000/svg">
<line x1="81.0812" y1="164.422" x2="175.018" y2="246.955" stroke="white" stroke-width="3"/>
<path d="M83.2719 159.749C84.3728 163.922 81.1755 167.99 76.8602 167.905L59.7262 167.571C54.3614 167.467 51.4266 161.274 54.7426 157.056L67.5054 140.819C70.8214 136.601 77.5319 137.99 78.9006 143.178L83.2719 159.749Z" stroke="white"/>
<rect x="87.9037" y="192.636" width="35.8307" height="27.7091" rx="13.8545" transform="rotate(-48.3115 87.9037 192.636)" fill="url(#paint0_linear_304_333)"/>
<circle cx="114.645" cy="181.429" r="3.31223" transform="rotate(-33.4948 114.645 181.429)" fill="url(#paint1_radial_304_333)"/>
<rect x="111.351" y="213.663" width="35.8307" height="27.7091" rx="13.8545" transform="rotate(-48.3148 111.351 213.663)" fill="url(#paint2_linear_304_333)"/>
<circle cx="136.255" cy="202.08" r="3.31223" transform="rotate(-33.4948 136.255 202.08)" fill="url(#paint3_radial_304_333)"/>
<path d="M372.233 268.316C375.018 274.36 371.571 281.887 364.534 285.129C357.497 288.372 349.536 286.101 346.751 280.057C343.966 274.014 348.448 261.649 352.277 259.885C356.107 258.12 369.449 262.272 372.233 268.316Z" fill="url(#paint4_linear_304_333)"/>
<g opacity="0.66">
<path d="M372.233 268.316C375.018 274.36 371.571 281.887 364.534 285.129C357.497 288.372 349.536 286.101 346.751 280.057C343.966 274.014 348.448 261.649 352.277 259.885C356.107 258.12 369.449 262.272 372.233 268.316Z" fill="url(#paint5_linear_304_333)"/>
<path d="M372.233 268.316C375.018 274.36 371.571 281.887 364.534 285.129C357.497 288.372 349.536 286.101 346.751 280.057C343.966 274.014 348.448 261.649 352.277 259.885C356.107 258.12 369.449 262.272 372.233 268.316Z" fill="url(#paint6_linear_304_333)" fill-opacity="0.2"/>
</g>
<path d="M439.438 153.145C444.453 157.519 444.391 165.798 439.299 171.637C434.207 177.477 426.013 178.665 420.998 174.292C415.983 169.918 415.008 156.803 417.779 153.625C420.551 150.447 434.423 148.772 439.438 153.145Z" fill="url(#paint7_linear_304_333)"/>
<g opacity="0.66">
<path d="M439.438 153.145C444.453 157.519 444.391 165.798 439.299 171.637C434.207 177.477 426.013 178.665 420.998 174.292C415.983 169.918 415.008 156.803 417.779 153.625C420.551 150.447 434.423 148.772 439.438 153.145Z" fill="url(#paint8_linear_304_333)"/>
<path d="M439.438 153.145C444.453 157.519 444.391 165.798 439.299 171.637C434.207 177.477 426.013 178.665 420.998 174.292C415.983 169.918 415.008 156.803 417.779 153.625C420.551 150.447 434.423 148.772 439.438 153.145Z" fill="url(#paint9_linear_304_333)" fill-opacity="0.2"/>
</g>
<path d="M6.67412 227.506C3.41015 221.707 6.23749 213.926 12.9892 210.125C19.7408 206.325 27.8601 207.945 31.1241 213.744C34.3881 219.542 30.9207 232.228 27.2462 234.297C23.5716 236.365 9.9381 233.305 6.67412 227.506Z" fill="url(#paint10_linear_304_333)"/>
<g opacity="0.66">
<path d="M6.67412 227.506C3.41015 221.707 6.23749 213.926 12.9892 210.125C19.7408 206.325 27.8601 207.945 31.1241 213.744C34.3881 219.542 30.9207 232.228 27.2462 234.297C23.5716 236.365 9.9381 233.305 6.67412 227.506Z" fill="url(#paint11_linear_304_333)"/>
<path d="M6.67412 227.506C3.41015 221.707 6.23749 213.926 12.9892 210.125C19.7408 206.325 27.8601 207.945 31.1241 213.744C34.3881 219.542 30.9207 232.228 27.2462 234.297C23.5716 236.365 9.9381 233.305 6.67412 227.506Z" fill="url(#paint12_linear_304_333)" fill-opacity="0.2"/>
</g>
<path d="M245.33 24.2619C242.066 18.4632 244.894 10.6815 251.645 6.88118C258.397 3.08082 266.516 4.70082 269.78 10.4996C273.044 16.2983 269.577 28.9844 265.902 31.0528C262.228 33.1211 248.594 30.0606 245.33 24.2619Z" fill="url(#paint13_linear_304_333)"/>
<g opacity="0.66">
<path d="M245.33 24.2619C242.066 18.4632 244.894 10.6815 251.645 6.88118C258.397 3.08082 266.516 4.70082 269.78 10.4996C273.044 16.2983 269.577 28.9844 265.902 31.0528C262.228 33.1211 248.594 30.0606 245.33 24.2619Z" fill="url(#paint14_linear_304_333)"/>
<path d="M245.33 24.2619C242.066 18.4632 244.894 10.6815 251.645 6.88118C258.397 3.08082 266.516 4.70082 269.78 10.4996C273.044 16.2983 269.577 28.9844 265.902 31.0528C262.228 33.1211 248.594 30.0606 245.33 24.2619Z" fill="url(#paint15_linear_304_333)" fill-opacity="0.2"/>
</g>
<path d="M174.473 343.013C167.995 344.538 161.306 339.66 159.531 332.118C157.756 324.576 161.567 317.227 168.045 315.702C174.522 314.178 185.745 321.033 186.711 325.137C187.677 329.242 180.95 341.489 174.473 343.013Z" fill="url(#paint16_linear_304_333)"/>
<g opacity="0.66">
<path d="M174.473 343.013C167.995 344.538 161.306 339.66 159.531 332.118C157.756 324.576 161.567 317.227 168.045 315.702C174.522 314.178 185.745 321.033 186.711 325.137C187.677 329.242 180.95 341.489 174.473 343.013Z" fill="url(#paint17_linear_304_333)"/>
<path d="M174.473 343.013C167.995 344.538 161.306 339.66 159.531 332.118C157.756 324.576 161.567 317.227 168.045 315.702C174.522 314.178 185.745 321.033 186.711 325.137C187.677 329.242 180.95 341.489 174.473 343.013Z" fill="url(#paint18_linear_304_333)" fill-opacity="0.2"/>
</g>
<path d="M158.645 65.1801C159.404 63.1543 169.28 52.6459 172.572 48.7211C175.863 44.7963 177.383 28.9702 166.748 25.9317C156.113 22.8931 154.414 22.8147 146.744 24.4124C132.495 27.3806 124.461 35.3007 119.396 49.7339C114.332 64.1672 114.332 80.1197 114.332 80.1197C114.332 80.1197 114.839 85.6905 123.701 89.7419C132.564 93.7934 141.73 93.1857 142.945 92.7805C144.465 92.2741 153.241 88.4492 155.1 81.3858C156.366 76.5747 157.885 67.2058 158.645 65.1801Z" fill="#FDEC7A" stroke="black" stroke-linecap="round"/>
<g filter="url(#filter0_d_304_333)">
<path d="M144.971 33.2564C145.478 35.2821 137.375 41.8657 135.349 44.9043C133.728 47.3352 132.31 54.6953 131.804 58.0715" stroke="black" stroke-width="0.5" stroke-linecap="round"/>
</g>
<g filter="url(#filter1_d_304_333)">
<path d="M144.995 63.7647C144.774 65.0036 140.183 67.6269 138.744 69.0844C137.594 70.2503 135.495 74.2827 134.589 76.1532" stroke="black" stroke-width="0.5" stroke-linecap="round"/>
</g>
<path d="M405.551 228.62C403.76 229.833 389.625 232.689 384.669 233.985C379.713 235.281 369.317 247.309 376.232 255.942C383.147 264.574 384.488 265.621 391.668 268.756C405.006 274.58 416.142 272.769 428.624 263.928C441.106 255.087 450.337 242.077 450.337 242.077C450.337 242.077 453.147 237.24 448.263 228.808C443.38 220.375 435.552 215.567 434.326 215.194C432.794 214.728 423.423 212.769 417.82 217.454C414.004 220.645 407.343 227.407 405.551 228.62Z" fill="#FDEC7A" stroke="black" stroke-linecap="round"/>
<g filter="url(#filter2_d_304_333)">
<path d="M398.231 262.568C398.99 260.623 409.408 259.943 412.819 258.637C415.547 257.592 420.962 252.409 423.329 249.949" stroke="black" stroke-width="0.5" stroke-linecap="round"/>
</g>
<g filter="url(#filter3_d_304_333)">
<path d="M415.865 237.673C416.763 236.79 422.025 237.307 424.041 236.951C425.654 236.666 429.699 234.592 431.52 233.59" stroke="black" stroke-width="0.5" stroke-linecap="round"/>
</g>
<path d="M341.128 61.9596L339.374 59.6215C333.173 64.7284 323.01 73.5233 316.019 80.6643L341.128 61.9596Z" fill="#C12020"/>
<path d="M308.394 90.6012C308.746 88.6675 311.807 84.966 316.019 80.6643M316.019 80.6643C323.01 73.5233 333.173 64.7284 339.374 59.6215L341.128 61.9596L316.019 80.6643Z" stroke="#C12020" stroke-linecap="round"/>
<g filter="url(#filter4_b_304_333)">
<circle cx="306.163" cy="105.905" r="15.3039" fill="url(#paint19_radial_304_333)"/>
</g>
<path d="M222.623 224.71L224.937 222.925C229.549 229.502 236.994 240.692 241.824 249.441L222.623 224.71Z" fill="#C12020"/>
<path d="M246.518 261.053C246.695 259.096 244.734 254.711 241.824 249.441M241.824 249.441C236.994 240.692 229.549 229.502 224.937 222.925L222.623 224.71L241.824 249.441Z" stroke="#C12020" stroke-linecap="round"/>
<g filter="url(#filter5_b_304_333)">
<circle cx="254.173" cy="272.12" r="15.3039" transform="rotate(-63.5585 254.173 272.12)" fill="url(#paint20_radial_304_333)"/>
</g>
<path d="M442.529 68.3078L374.532 163.007" stroke="white" stroke-linecap="round"/>
<circle cx="426.897" cy="89.8974" r="7.10778" transform="rotate(41.4208 426.897 89.8974)" fill="url(#paint21_linear_304_333)"/>
<circle cx="408.585" cy="116.748" r="7.10778" transform="rotate(41.4208 408.585 116.748)" fill="url(#paint22_linear_304_333)"/>
<circle cx="390.702" cy="143.399" r="7.10778" transform="rotate(41.4208 390.702 143.399)" fill="url(#paint23_linear_304_333)"/>
<rect x="415.97" y="93.5543" width="15.3368" height="15.7129" transform="rotate(33.524 415.97 93.5543)" fill="#FFC20F"/>
<rect x="398.206" y="120.282" width="15.3368" height="15.7129" transform="rotate(33.524 398.206 120.282)" fill="#FFC20F"/>
<path fill-rule="evenodd" clip-rule="evenodd" d="M290.859 183.541C290.859 197.745 279.344 209.26 265.14 209.26C250.935 209.26 239.42 197.745 239.42 183.541C239.42 169.336 250.935 157.822 265.14 157.822C279.344 157.822 290.859 169.336 290.859 183.541ZM265.77 183.541H246.435V182.541H265.308L251.111 168.343L251.818 167.636L266.309 182.126L266.309 162.498H267.309V182.002L281.674 167.636L282.382 168.343L268.184 182.541H287.351V183.541H267.723L280.751 196.568L280.043 197.275L267.309 184.541V203.414H266.309V184.416L253.449 197.275L252.742 196.568L265.77 183.541Z" fill="#FF3FCB"/>
<path fill-rule="evenodd" clip-rule="evenodd" d="M81.5989 59.6215C81.5989 73.8257 70.0841 85.3405 55.8798 85.3405C41.6756 85.3405 30.1608 73.8257 30.1608 59.6215C30.1608 45.4172 41.6756 33.9024 55.8798 33.9024C70.0841 33.9024 81.5989 45.4172 81.5989 59.6215ZM56.51 59.6215H37.1751V58.6215H56.0489L41.8513 44.4239L42.5584 43.7167L57.0489 58.2073L57.0489 38.5786H58.0489V58.0826L72.4147 43.7168L73.1218 44.4239L58.9242 58.6215H78.0918V59.6215H58.4631L71.4909 72.6492L70.7838 73.3563L58.0489 60.6215V79.4953H57.0489V60.4968L44.1894 73.3563L43.4823 72.6492L56.51 59.6215Z" fill="#FF3FCB"/>
<defs>
<filter id="filter0_d_304_333" x="127.554" y="33.0063" width="21.69" height="33.3152" filterUnits="userSpaceOnUse" color-interpolation-filters="sRGB">
<feFlood flood-opacity="0" result="BackgroundImageFix"/>
<feColorMatrix in="SourceAlpha" type="matrix" values="0 0 0 0 0 0 0 0 0 0 0 0 0 0 0 0 0 0 127 0" result="hardAlpha"/>
<feOffset dy="4"/>
<feGaussianBlur stdDeviation="2"/>
<feComposite in2="hardAlpha" operator="out"/>
<feColorMatrix type="matrix" values="0 0 0 0 0 0 0 0 0 0 0 0 0 0 0 0 0 0 0.25 0"/>
<feBlend mode="normal" in2="BackgroundImageFix" result="effect1_dropShadow_304_333"/>
<feBlend mode="normal" in="SourceGraphic" in2="effect1_dropShadow_304_333" result="shape"/>
</filter>
<filter id="filter1_d_304_333" x="130.339" y="63.5147" width="18.9058" height="20.8885" filterUnits="userSpaceOnUse" color-interpolation-filters="sRGB">
<feFlood flood-opacity="0" result="BackgroundImageFix"/>
<feColorMatrix in="SourceAlpha" type="matrix" values="0 0 0 0 0 0 0 0 0 0 0 0 0 0 0 0 0 0 127 0" result="hardAlpha"/>
<feOffset dy="4"/>
<feGaussianBlur stdDeviation="2"/>
<feComposite in2="hardAlpha" operator="out"/>
<feColorMatrix type="matrix" values="0 0 0 0 0 0 0 0 0 0 0 0 0 0 0 0 0 0 0.25 0"/>
<feBlend mode="normal" in2="BackgroundImageFix" result="effect1_dropShadow_304_333"/>
<feBlend mode="normal" in="SourceGraphic" in2="effect1_dropShadow_304_333" result="shape"/>
</filter>
<filter id="filter2_d_304_333" x="393.981" y="249.699" width="33.5981" height="21.1196" filterUnits="userSpaceOnUse" color-interpolation-filters="sRGB">
<feFlood flood-opacity="0" result="BackgroundImageFix"/>
<feColorMatrix in="SourceAlpha" type="matrix" values="0 0 0 0 0 0 0 0 0 0 0 0 0 0 0 0 0 0 127 0" result="hardAlpha"/>
<feOffset dy="4"/>
<feGaussianBlur stdDeviation="2"/>
<feComposite in2="hardAlpha" operator="out"/>
<feColorMatrix type="matrix" values="0 0 0 0 0 0 0 0 0 0 0 0 0 0 0 0 0 0 0.25 0"/>
<feBlend mode="normal" in2="BackgroundImageFix" result="effect1_dropShadow_304_333"/>
<feBlend mode="normal" in="SourceGraphic" in2="effect1_dropShadow_304_333" result="shape"/>
</filter>
<filter id="filter3_d_304_333" x="411.615" y="233.34" width="24.1552" height="12.5826" filterUnits="userSpaceOnUse" color-interpolation-filters="sRGB">
<feFlood flood-opacity="0" result="BackgroundImageFix"/>
<feColorMatrix in="SourceAlpha" type="matrix" values="0 0 0 0 0 0 0 0 0 0 0 0 0 0 0 0 0 0 127 0" result="hardAlpha"/>
<feOffset dy="4"/>
<feGaussianBlur stdDeviation="2"/>
<feComposite in2="hardAlpha" operator="out"/>
<feColorMatrix type="matrix" values="0 0 0 0 0 0 0 0 0 0 0 0 0 0 0 0 0 0 0.25 0"/>
<feBlend mode="normal" in2="BackgroundImageFix" result="effect1_dropShadow_304_333"/>
<feBlend mode="normal" in="SourceGraphic" in2="effect1_dropShadow_304_333" result="shape"/>
</filter>
<filter id="filter4_b_304_333" x="263.859" y="63.6013" width="84.6078" height="84.6078" filterUnits="userSpaceOnUse" color-interpolation-filters="sRGB">
<feFlood flood-opacity="0" result="BackgroundImageFix"/>
<feGaussianBlur in="BackgroundImageFix" stdDeviation="13.5"/>
<feComposite in2="SourceAlpha" operator="in" result="effect1_backgroundBlur_304_333"/>
<feBlend mode="normal" in="SourceGraphic" in2="effect1_backgroundBlur_304_333" result="shape"/>
</filter>
<filter id="filter5_b_304_333" x="211.866" y="229.812" width="84.6146" height="84.6146" filterUnits="userSpaceOnUse" color-interpolation-filters="sRGB">
<feFlood flood-opacity="0" result="BackgroundImageFix"/>
<feGaussianBlur in="BackgroundImageFix" stdDeviation="13.5"/>
<feComposite in2="SourceAlpha" operator="in" result="effect1_backgroundBlur_304_333"/>
<feBlend mode="normal" in="SourceGraphic" in2="effect1_backgroundBlur_304_333" result="shape"/>
</filter>
<linearGradient id="paint0_linear_304_333" x1="105.819" y1="192.636" x2="105.819" y2="220.345" gradientUnits="userSpaceOnUse">
<stop stop-color="#FC7186"/>
<stop offset="0.80642" stop-color="#AB9E35"/>
</linearGradient>
<radialGradient id="paint1_radial_304_333" cx="0" cy="0" r="1" gradientUnits="userSpaceOnUse" gradientTransform="translate(112.657 182.423) rotate(16.3139) scale(14.1499)">
<stop stop-color="#171717"/>
<stop offset="0.218165"/>
<stop offset="0.426501" stop-color="white"/>
</radialGradient>
<linearGradient id="paint2_linear_304_333" x1="129.266" y1="213.663" x2="129.266" y2="241.372" gradientUnits="userSpaceOnUse">
<stop stop-color="#FC7186"/>
<stop offset="0.80642" stop-color="#AB9E35"/>
</linearGradient>
<radialGradient id="paint3_radial_304_333" cx="0" cy="0" r="1" gradientUnits="userSpaceOnUse" gradientTransform="translate(134.267 203.074) rotate(16.3139) scale(14.1499)">
<stop stop-color="#171717"/>
<stop offset="0.218165"/>
<stop offset="0.426501" stop-color="white"/>
</radialGradient>
<linearGradient id="paint4_linear_304_333" x1="352.793" y1="259.647" x2="364.534" y2="285.129" gradientUnits="userSpaceOnUse">
<stop stop-color="#B66226"/>
<stop offset="0.0001" stop-color="#C47536"/>
<stop offset="1" stop-color="#3D1C02"/>
</linearGradient>
<linearGradient id="paint5_linear_304_333" x1="352.793" y1="259.647" x2="364.534" y2="285.129" gradientUnits="userSpaceOnUse">
<stop stop-color="#E6A56F"/>
<stop offset="0.519097" stop-color="#B25C21"/>
<stop offset="0.769097" stop-color="#C47536"/>
</linearGradient>
<linearGradient id="paint6_linear_304_333" x1="350.717" y1="255.141" x2="364.534" y2="285.129" gradientUnits="userSpaceOnUse">
<stop stop-color="#A95820"/>
<stop offset="0.343277" stop-color="#F87382"/>
<stop offset="0.993055"/>
</linearGradient>
<linearGradient id="paint7_linear_304_333" x1="418.152" y1="153.197" x2="439.299" y2="171.637" gradientUnits="userSpaceOnUse">
<stop stop-color="#B66226"/>
<stop offset="0.0001" stop-color="#C47536"/>
<stop offset="1" stop-color="#3D1C02"/>
</linearGradient>
<linearGradient id="paint8_linear_304_333" x1="418.152" y1="153.197" x2="439.299" y2="171.637" gradientUnits="userSpaceOnUse">
<stop stop-color="#E6A56F"/>
<stop offset="0.519097" stop-color="#B25C21"/>
<stop offset="0.769097" stop-color="#C47536"/>
</linearGradient>
<linearGradient id="paint9_linear_304_333" x1="414.413" y1="149.936" x2="439.299" y2="171.637" gradientUnits="userSpaceOnUse">
<stop stop-color="#A95820"/>
<stop offset="0.343277" stop-color="#F87382"/>
<stop offset="0.993055"/>
</linearGradient>
<linearGradient id="paint10_linear_304_333" x1="26.7515" y1="234.575" x2="12.9892" y2="210.125" gradientUnits="userSpaceOnUse">
<stop stop-color="#B66226"/>
<stop offset="0.0001" stop-color="#C47536"/>
<stop offset="1" stop-color="#3D1C02"/>
</linearGradient>
<linearGradient id="paint11_linear_304_333" x1="26.7515" y1="234.575" x2="12.9892" y2="210.125" gradientUnits="userSpaceOnUse">
<stop stop-color="#E6A56F"/>
<stop offset="0.519097" stop-color="#B25C21"/>
<stop offset="0.769097" stop-color="#C47536"/>
</linearGradient>
<linearGradient id="paint12_linear_304_333" x1="29.1851" y1="238.899" x2="12.9892" y2="210.125" gradientUnits="userSpaceOnUse">
<stop stop-color="#A95820"/>
<stop offset="0.343277" stop-color="#F87382"/>
<stop offset="0.993055"/>
</linearGradient>
<linearGradient id="paint13_linear_304_333" x1="265.408" y1="31.3312" x2="251.645" y2="6.88118" gradientUnits="userSpaceOnUse">
<stop stop-color="#B66226"/>
<stop offset="0.0001" stop-color="#C47536"/>
<stop offset="1" stop-color="#3D1C02"/>
</linearGradient>
<linearGradient id="paint14_linear_304_333" x1="265.408" y1="31.3312" x2="251.645" y2="6.88118" gradientUnits="userSpaceOnUse">
<stop stop-color="#E6A56F"/>
<stop offset="0.519097" stop-color="#B25C21"/>
<stop offset="0.769097" stop-color="#C47536"/>
</linearGradient>
<linearGradient id="paint15_linear_304_333" x1="267.841" y1="35.6547" x2="251.645" y2="6.88118" gradientUnits="userSpaceOnUse">
<stop stop-color="#A95820"/>
<stop offset="0.343277" stop-color="#F87382"/>
<stop offset="0.993055"/>
</linearGradient>
<linearGradient id="paint16_linear_304_333" x1="186.841" y1="325.69" x2="159.531" y2="332.118" gradientUnits="userSpaceOnUse">
<stop stop-color="#B66226"/>
<stop offset="0.0001" stop-color="#C47536"/>
<stop offset="1" stop-color="#3D1C02"/>
</linearGradient>
<linearGradient id="paint17_linear_304_333" x1="186.841" y1="325.69" x2="159.531" y2="332.118" gradientUnits="userSpaceOnUse">
<stop stop-color="#E6A56F"/>
<stop offset="0.519097" stop-color="#B25C21"/>
<stop offset="0.769097" stop-color="#C47536"/>
</linearGradient>
<linearGradient id="paint18_linear_304_333" x1="191.671" y1="324.553" x2="159.531" y2="332.118" gradientUnits="userSpaceOnUse">
<stop stop-color="#A95820"/>
<stop offset="0.343277" stop-color="#F87382"/>
<stop offset="0.993055"/>
</linearGradient>
<radialGradient id="paint19_radial_304_333" cx="0" cy="0" r="1" gradientUnits="userSpaceOnUse" gradientTransform="translate(285.598 106.383) scale(47.3465 34.2005)">
<stop offset="0.301262" stop-color="#8E0505"/>
<stop offset="0.493122" stop-color="#FF2D2D" stop-opacity="0.43"/>
<stop offset="0.675846" stop-color="#CE2626" stop-opacity="0.63"/>
<stop offset="1" stop-color="white" stop-opacity="0.2"/>
</radialGradient>
<radialGradient id="paint20_radial_304_333" cx="0" cy="0" r="1" gradientUnits="userSpaceOnUse" gradientTransform="translate(233.609 272.598) scale(47.3465 34.2005)">
<stop offset="0.301262" stop-color="#8E0505"/>
<stop offset="0.493122" stop-color="#FF2D2D" stop-opacity="0.43"/>
<stop offset="0.675846" stop-color="#CE2626" stop-opacity="0.63"/>
<stop offset="1" stop-color="white" stop-opacity="0.2"/>
</radialGradient>
<linearGradient id="paint21_linear_304_333" x1="426.897" y1="82.7896" x2="426.897" y2="97.0051" gradientUnits="userSpaceOnUse">
<stop stop-color="#FC7186"/>
<stop offset="0.80642" stop-color="#AB9E35"/>
</linearGradient>
<linearGradient id="paint22_linear_304_333" x1="408.585" y1="109.641" x2="408.585" y2="123.856" gradientUnits="userSpaceOnUse">
<stop stop-color="#FC7186"/>
<stop offset="0.80642" stop-color="#AB9E35"/>
</linearGradient>
<linearGradient id="paint23_linear_304_333" x1="390.702" y1="136.292" x2="390.702" y2="150.507" gradientUnits="userSpaceOnUse">
<stop stop-color="#FC7186"/>
<stop offset="0.80642" stop-color="#AB9E35"/>
</linearGradient>
</defs>
</svg>
