<svg width="49" height="60" viewBox="0 0 49 60" fill="none" xmlns="http://www.w3.org/2000/svg">
<path d="M0 50.8787V44.9565H6.125V24.2286C6.125 20.1324 7.40104 16.4922 9.95312 13.308C12.5052 10.1258 15.8229 8.04118 19.9062 7.05414V4.98135C19.9062 3.74755 20.3534 2.69932 21.2476 1.83664C22.1398 0.971996 23.224 0.539673 24.5 0.539673C25.776 0.539673 26.8602 0.971996 27.7524 1.83664C28.6466 2.69932 29.0937 3.74755 29.0937 4.98135V7.05414C33.1771 8.04118 36.4948 10.1258 39.0469 13.308C41.599 16.4922 42.875 20.1324 42.875 24.2286V44.9565H49V50.8787H0ZM24.5 59.7621C22.8156 59.7621 21.3742 59.1827 20.1758 58.0239C18.9753 56.8631 18.375 55.4684 18.375 53.8398H30.625C30.625 55.4684 30.0258 56.8631 28.8273 58.0239C27.6268 59.1827 26.1844 59.7621 24.5 59.7621ZM12.25 44.9565H36.75V24.2286C36.75 20.9714 35.5505 18.183 33.1516 15.8635C30.7526 13.5439 27.8687 12.3842 24.5 12.3842C21.1312 12.3842 18.2474 13.5439 15.8484 15.8635C13.4495 18.183 12.25 20.9714 12.25 24.2286V44.9565Z" fill="white" fill-opacity="0.57"/>
</svg>
